<svg width="210" height="184" viewBox="0 0 210 184" fill="none" xmlns="http://www.w3.org/2000/svg">
<g filter="url(#filter0_d_12_4)">
<path d="M54.793 69.2012L8.1279 153.935C2.68768 163.814 9.83389 175.907 21.1112 175.907H35.6198C40.9266 175.907 45.8285 173.07 48.472 168.469L89.5946 96.8848C92.4249 91.9579 92.1896 85.8466 88.9887 81.1519L80.0226 68.0016C73.7961 58.8694 60.125 59.5194 54.793 69.2012Z" fill="#CB3CFF"/>
<path d="M196.755 70.301L162.873 10.4312C161.595 7.75038 160.56 6.50345 157.216 5.47376C154.461 4.5224 151.441 3.8259 148.163 3.38565C146.951 3.21117 145.228 3.14945 144.778 3.13579L144.742 3.13478C144.679 3.13314 144.617 3.13221 144.554 3.13163L133.173 3.0283L19.9818 2.00066C8.1509 1.89324 0.969081 15.0087 7.43217 24.9187L15.4292 37.1809C18.3268 41.6238 23.3789 44.1764 28.6757 43.8943C68.0361 41.7982 98.7903 40.9963 123.114 42.6132C124.037 42.6746 124.952 42.7395 125.857 42.8079L125.862 42.8083C128.551 43.0129 131.048 44.2451 132.89 46.2154C145.246 60.5084 153.915 72.8303 159.724 84.5501C160.052 85.211 160.37 85.87 160.68 86.5273L160.682 86.5326C161.131 87.4888 161.056 88.6037 160.506 89.5042L160.496 89.5198L135.618 129.946C132.921 134.33 128.142 137 122.995 137H91.7077C86.3888 137 81.4776 139.85 78.8387 144.468L73.5451 153.732C67.8988 163.613 75.0336 175.907 86.4142 175.907H148.637C153.944 175.907 158.846 173.07 161.489 168.469L166.795 159.233L203.03 96.1566C205.64 91.6144 205.658 86.0322 203.078 81.4733L196.755 70.301Z" fill="#00C2FF"/>
<path d="M132.518 46.5499C144.855 60.8208 153.492 73.1042 159.275 84.7701C159.276 84.7708 159.276 84.7715 159.276 84.7722L160.221 86.7272C160.417 87.2706 160.49 87.6462 160.47 87.9983C160.449 88.352 160.331 88.7315 160.059 89.2762L135.193 129.684C132.586 133.92 127.969 136.5 122.995 136.5H91.7077C86.2094 136.5 81.1325 139.446 78.4046 144.22L73.111 153.484C67.2742 163.698 74.6496 176.407 86.4142 176.407H148.637C154.123 176.407 159.19 173.475 161.923 168.718L167.229 159.482L203.464 96.4057C206.161 91.7103 206.18 85.9398 203.513 81.2271L197.19 70.0548L163.317 10.2001C162.674 8.8536 162.064 7.80553 161.159 6.96662C160.248 6.12213 159.077 5.52457 157.371 4.99842C154.584 4.03651 151.535 3.33412 148.232 2.89043C146.989 2.71163 145.241 2.6496 144.793 2.63602L144.792 2.63598L144.756 2.63499L144.756 2.63498L144.755 2.63495L144.715 2.6338C144.688 2.63306 144.662 2.6326 144.636 2.63236L144.558 2.63165L133.177 2.52832L19.9863 1.50068C7.75634 1.38964 0.332251 14.9475 7.01337 25.1919L15.0104 37.4541C18.0059 42.0471 23.2282 44.6851 28.7023 44.3936C68.0604 42.2976 98.7882 41.4974 123.079 43.112C123.08 43.1121 123.08 43.1121 123.081 43.1121L125.819 43.3065C125.819 43.3065 125.819 43.3065 125.819 43.3065L125.824 43.3069C125.824 43.3069 125.824 43.3069 125.824 43.3069C125.824 43.3069 125.825 43.3069 125.825 43.307C128.382 43.5019 130.759 44.6725 132.518 46.5499ZM54.3551 68.96L7.68992 153.694C2.06619 163.906 9.45347 176.407 21.1112 176.407H35.6198C41.1056 176.407 46.1729 173.475 48.9055 168.718L90.0281 97.1339C92.954 92.0408 92.7107 85.7233 89.4018 80.8702L80.4357 67.72C73.9991 58.2797 59.8669 58.9516 54.3551 68.96Z" stroke="#00C2FF"/>
</g>
<defs>
<filter id="filter0_d_12_4" x="-0.00170898" y="0" width="210.002" height="183.907" filterUnits="userSpaceOnUse" color-interpolation-filters="sRGB">
<feFlood flood-opacity="0" result="BackgroundImageFix"/>
<feColorMatrix in="SourceAlpha" type="matrix" values="0 0 0 0 0 0 0 0 0 0 0 0 0 0 0 0 0 0 127 0" result="hardAlpha"/>
<feOffset dy="3"/>
<feGaussianBlur stdDeviation="2"/>
<feComposite in2="hardAlpha" operator="out"/>
<feColorMatrix type="matrix" values="0 0 0 0 0 0 0 0 0 0 0 0 0 0 0 0 0 0 0.25 0"/>
<feBlend mode="normal" in2="BackgroundImageFix" result="effect1_dropShadow_12_4"/>
<feBlend mode="normal" in="SourceGraphic" in2="effect1_dropShadow_12_4" result="shape"/>
</filter>
</defs>
</svg>
