<svg width="55" height="47" viewBox="0 0 55 47" fill="none" xmlns="http://www.w3.org/2000/svg">
<path d="M4.4646 0.0677703C1.2718 0.0387832 -0.666361 3.57825 1.07783 6.25268L4.5 11.5C17.4071 4.51381 27.7506 0.83465 35.0114 0.345102L4.4646 0.0677703Z" fill="url(#paint0_linear_2_10)"/>
<path d="M35.0114 0.345102C27.7506 0.83465 17.4071 4.51381 4.5 11.5C17.3043 10.7825 26.8795 10.5123 34.1627 11.1739C42.9577 11.9729 48.4103 14.1306 52.1704 18.5L43.0268 2.34292C42.6818 1.61945 42.4023 1.28294 41.5 1.00506C40.7564 0.748314 39.9415 0.560349 39.057 0.441539C38.7299 0.394453 38.2648 0.377796 38.1432 0.374108C38.123 0.373495 38.1031 0.373171 38.0829 0.372987L35.0114 0.345102Z" fill="url(#paint1_linear_2_10)"/>
<path d="M44.0851 42.5L53.8639 25.4776C54.5681 24.2518 54.5729 22.7454 53.8767 21.5151L52.1704 18.5C48.4103 14.1306 42.9577 11.9729 34.1627 11.1739L34.9352 12C38.6054 16.2455 41.07 19.8466 42.6271 23.2959C45.3343 29.2929 45.2981 34.8312 44.0851 42.5Z" fill="url(#paint2_linear_2_10)"/>
<path d="M23.8213 36.5C22.3859 36.5 21.0605 37.2691 20.3483 38.5154L18.9197 41.0154C17.396 43.6821 19.3214 47 22.3927 47H39.1848C40.617 47 41.9399 46.2343 42.6532 44.9925L44.0851 42.5C45.2981 34.8312 45.3343 29.2929 42.6271 23.2959L42.3852 23.6866L35.6715 34.5964C34.9435 35.7794 33.6539 36.5 32.2648 36.5H23.8213Z" fill="url(#paint3_linear_2_10)"/>
<path d="M17 12.5L1.26559 41.0704C-0.202563 43.7362 1.72599 47 4.76938 47H11L17 12.5Z" fill="url(#paint4_linear_2_10)"/>
<path d="M23.251 25.6742C24.0148 24.3445 23.9513 22.6953 23.0875 21.4283L17 12.5L11 47L23.251 25.6742Z" fill="url(#paint5_linear_2_10)"/>
<defs>
<linearGradient id="paint0_linear_2_10" x1="-15" y1="10.5" x2="4.5" y2="22" gradientUnits="userSpaceOnUse">
<stop stop-color="#0033B7"/>
<stop offset="1" stop-color="#66F6F8"/>
</linearGradient>
<linearGradient id="paint1_linear_2_10" x1="55" y1="17.5" x2="52" y2="-4.5" gradientUnits="userSpaceOnUse">
<stop stop-color="#0033B7"/>
<stop offset="1" stop-color="#66F6F8"/>
</linearGradient>
<linearGradient id="paint2_linear_2_10" x1="31.5" y1="17" x2="45" y2="45" gradientUnits="userSpaceOnUse">
<stop offset="0.0127826" stop-color="#0033B7"/>
<stop offset="1" stop-color="#66F6F8"/>
</linearGradient>
<linearGradient id="paint3_linear_2_10" x1="29.5" y1="3.5" x2="3" y2="20" gradientUnits="userSpaceOnUse">
<stop stop-color="#0033B7"/>
<stop offset="1" stop-color="#66F6F8"/>
</linearGradient>
<linearGradient id="paint4_linear_2_10" x1="-3" y1="41" x2="13.5" y2="32.5" gradientUnits="userSpaceOnUse">
<stop stop-color="#CB3CFF"/>
<stop offset="1" stop-color="#E4C5EF"/>
</linearGradient>
<linearGradient id="paint5_linear_2_10" x1="0.5" y1="24" x2="17" y2="10" gradientUnits="userSpaceOnUse">
<stop stop-color="#CB3CFF"/>
<stop offset="1" stop-color="#F0CBFE"/>
</linearGradient>
</defs>
</svg>
