<svg width="124" height="100" viewBox="0 0 124 100" fill="none" xmlns="http://www.w3.org/2000/svg">
<g clip-path="url(#clip0_5_2)">
<circle cx="62" cy="50" r="45" fill="#F0F0F0"/>
<path d="M36.0099 77.071C35.6217 77.071 35.2808 76.9692 34.9872 76.7656C34.696 76.562 34.4865 76.2531 34.3587 75.8388C34.2332 75.4245 34.2225 74.9025 34.3267 74.2727C34.4356 73.6146 34.6262 73.0795 34.8984 72.6676C35.1731 72.2557 35.4879 71.9538 35.843 71.7621C36.2005 71.5703 36.5592 71.4744 36.919 71.4744C37.1889 71.4744 37.4174 71.5218 37.6044 71.6165C37.7938 71.7088 37.9441 71.8331 38.0554 71.9893C38.1667 72.1432 38.2424 72.3125 38.2827 72.4972H38.3111L38.7727 69.7273H40.733L39.5256 77H37.5795L37.7287 76.1051H37.6861C37.5795 76.2898 37.4434 76.4555 37.2777 76.6023C37.1143 76.7467 36.9261 76.8615 36.7131 76.9467C36.5 77.0296 36.2656 77.071 36.0099 77.071ZM36.983 75.5653C37.1629 75.5653 37.3262 75.5133 37.473 75.4091C37.6198 75.3026 37.7441 75.1534 37.8459 74.9616C37.9477 74.7675 38.0199 74.5379 38.0625 74.2727C38.1075 74.0028 38.111 73.772 38.0732 73.5803C38.0353 73.3861 37.9595 73.2382 37.8459 73.1364C37.7346 73.0322 37.589 72.9801 37.4091 72.9801C37.2292 72.9801 37.067 73.0322 36.9226 73.1364C36.7782 73.2382 36.6562 73.3861 36.5568 73.5803C36.4598 73.772 36.3887 74.0028 36.3438 74.2727C36.2988 74.5426 36.2929 74.7746 36.326 74.9688C36.3615 75.1605 36.4349 75.3085 36.5462 75.4126C36.6574 75.5144 36.803 75.5653 36.983 75.5653ZM43.0874 77.0994C42.505 77.0994 42.022 76.9882 41.6385 76.7656C41.255 76.5407 40.9851 76.2187 40.8288 75.7997C40.6726 75.3783 40.6442 74.8741 40.7436 74.2869C40.8383 73.7235 41.0336 73.2311 41.3295 72.8097C41.6278 72.3883 42.0031 72.0604 42.4553 71.826C42.9098 71.5916 43.4188 71.4744 43.9822 71.4744C44.3942 71.4744 44.7552 71.5384 45.0653 71.6662C45.3778 71.794 45.6323 71.9799 45.8288 72.2237C46.0253 72.4676 46.1579 72.7623 46.2266 73.108C46.2976 73.4512 46.2976 73.8395 46.2266 74.2727L46.1555 74.7273H41.2834L41.4538 73.6477H44.522C44.5457 73.4915 44.5303 73.3542 44.4759 73.2358C44.4238 73.1151 44.3397 73.0215 44.2237 72.9553C44.1101 72.8866 43.9728 72.8523 43.8118 72.8523C43.6508 72.8523 43.4993 72.8866 43.3572 72.9553C43.2176 73.0239 43.098 73.1198 42.9986 73.2429C42.9015 73.366 42.8364 73.5104 42.8033 73.6761L42.5902 74.8125C42.5618 74.9877 42.5724 75.1439 42.6222 75.2812C42.6719 75.4186 42.7583 75.5263 42.8814 75.6044C43.0045 75.6825 43.1631 75.7216 43.3572 75.7216C43.4898 75.7216 43.6153 75.7038 43.7337 75.6683C43.8544 75.6304 43.9609 75.576 44.0533 75.505C44.148 75.4316 44.2237 75.3428 44.2805 75.2386H46.0703C45.9425 75.6174 45.7401 75.9465 45.4631 76.2259C45.1884 76.5028 44.8499 76.7183 44.4474 76.8722C44.0473 77.0237 43.594 77.0994 43.0874 77.0994ZM52.1543 73.321H50.3929C50.4024 73.2074 50.3823 73.1103 50.3326 73.0298C50.2828 72.9493 50.213 72.8878 50.123 72.8452C50.0355 72.8026 49.936 72.7812 49.8248 72.7812C49.6306 72.7812 49.4542 72.825 49.2956 72.9126C49.137 72.9979 49.0482 73.1103 49.0293 73.25C49.0175 73.3045 49.0352 73.3554 49.0826 73.4027C49.1299 73.45 49.2542 73.4938 49.4554 73.5341L50.535 73.733C51.0748 73.8324 51.4677 74.0135 51.714 74.2763C51.9625 74.5367 52.0525 74.8812 51.9838 75.3097C51.9199 75.6813 51.7566 76.0009 51.4938 76.2685C51.231 76.536 50.8972 76.742 50.4924 76.8864C50.0899 77.0284 49.6448 77.0994 49.1571 77.0994C48.2978 77.0994 47.6538 76.9278 47.2253 76.5845C46.7992 76.2412 46.6051 75.7926 46.6429 75.2386H48.5463C48.5511 75.4162 48.6103 75.55 48.7239 75.6399C48.8399 75.7275 48.9938 75.7737 49.1855 75.7784C49.3939 75.7855 49.5762 75.7441 49.7324 75.6541C49.8887 75.5618 49.9763 75.447 49.9952 75.3097C50.0023 75.2315 49.968 75.1723 49.8922 75.1321C49.8188 75.0919 49.678 75.0516 49.4696 75.0114L48.5321 74.8409C47.9924 74.7438 47.5994 74.5497 47.3532 74.2585C47.1069 73.965 47.0217 73.5909 47.0975 73.1364C47.159 72.7741 47.3058 72.4699 47.5378 72.2237C47.7722 71.9775 48.08 71.7917 48.4611 71.6662C48.8423 71.5384 49.2826 71.4744 49.7821 71.4744C50.5989 71.4744 51.2168 71.639 51.6358 71.968C52.0572 72.2947 52.2301 72.7457 52.1543 73.321ZM54.4252 75.7074L54.823 73.3778H55.0787L56.7122 71.5455H58.9139L56.2292 74.4006H55.6752L54.4252 75.7074ZM52.4508 77L53.6582 69.7273H55.6184L54.411 77H52.4508ZM55.8173 77L54.9224 74.8409L56.4423 73.4489L58.0616 77H55.8173ZM62.6772 71.5455L62.4357 72.9659H58.842L59.0835 71.5455H62.6772ZM59.9925 70.2386H61.9528L61.1218 75.2457C61.11 75.3215 61.1123 75.3854 61.1289 75.4375C61.1455 75.4872 61.1786 75.5251 61.2283 75.5511C61.2804 75.5748 61.3491 75.5866 61.4343 75.5866C61.4911 75.5866 61.561 75.5795 61.6438 75.5653C61.7267 75.5488 61.7894 75.5369 61.832 75.5298L61.8888 76.9077C61.7894 76.9361 61.6557 76.968 61.4876 77.0036C61.3219 77.0414 61.1289 77.0663 60.9087 77.0781C60.4495 77.0994 60.0754 77.0509 59.7866 76.9325C59.5001 76.8142 59.3013 76.6295 59.19 76.3786C59.0811 76.1252 59.0621 75.8092 59.1332 75.4304L59.9925 70.2386ZM65.1088 77.0994C64.5265 77.0994 64.0435 76.9882 63.66 76.7656C63.2765 76.5407 63.0066 76.2187 62.8503 75.7997C62.6941 75.3783 62.6657 74.8741 62.7651 74.2869C62.8598 73.7235 63.0551 73.2311 63.351 72.8097C63.6493 72.3883 64.0246 72.0604 64.4767 71.826C64.9313 71.5916 65.4403 71.4744 66.0037 71.4744C66.4157 71.4744 66.7767 71.5384 67.0868 71.6662C67.3993 71.794 67.6538 71.9799 67.8503 72.2237C68.0468 72.4676 68.1794 72.7623 68.248 73.108C68.3191 73.4512 68.3191 73.8395 68.248 74.2727L68.177 74.7273H63.3049L63.4753 73.6477H66.5435C66.5672 73.4915 66.5518 73.3542 66.4973 73.2358C66.4453 73.1151 66.3612 73.0215 66.2452 72.9553C66.1316 72.8866 65.9943 72.8523 65.8333 72.8523C65.6723 72.8523 65.5208 72.8866 65.3787 72.9553C65.2391 73.0239 65.1195 73.1198 65.0201 73.2429C64.923 73.366 64.8579 73.5104 64.8248 73.6761L64.6117 74.8125C64.5833 74.9877 64.5939 75.1439 64.6436 75.2812C64.6934 75.4186 64.7798 75.5263 64.9029 75.6044C65.026 75.6825 65.1846 75.7216 65.3787 75.7216C65.5113 75.7216 65.6368 75.7038 65.7551 75.6683C65.8759 75.6304 65.9824 75.576 66.0748 75.505C66.1694 75.4316 66.2452 75.3428 66.302 75.2386H68.0918C67.964 75.6174 67.7615 75.9465 67.4846 76.2259C67.2099 76.5028 66.8714 76.7183 66.4689 76.8722C66.0688 77.0237 65.6155 77.0994 65.1088 77.0994ZM68.5934 77L69.5025 71.5455H71.4059L71.2354 72.5824H71.2923C71.4556 72.1989 71.6604 71.9183 71.9066 71.7408C72.1528 71.5632 72.4215 71.4744 72.7127 71.4744C72.7979 71.4744 72.8796 71.4815 72.9577 71.4957C73.0382 71.5076 73.1175 71.5241 73.1957 71.5455L72.9116 73.2216C72.8192 73.1861 72.7044 73.1612 72.5671 73.147C72.4298 73.1304 72.3079 73.1222 72.2013 73.1222C72.012 73.1222 71.8344 73.166 71.6687 73.2536C71.5053 73.3388 71.3656 73.4595 71.2496 73.6158C71.136 73.7696 71.0603 73.9508 71.0224 74.1591L70.5536 77H68.5934ZM73.4123 77.1136C73.1353 77.1136 72.9092 77.0178 72.734 76.826C72.5612 76.6319 72.489 76.3963 72.5174 76.1193C72.5458 75.8494 72.6677 75.6186 72.8832 75.4268C73.101 75.2351 73.3484 75.1392 73.6254 75.1392C73.8881 75.1392 74.1071 75.2351 74.2823 75.4268C74.4599 75.6186 74.5344 75.8494 74.506 76.1193C74.4871 76.304 74.422 76.4721 74.3107 76.6236C74.2018 76.7727 74.0669 76.8923 73.9059 76.9822C73.7473 77.0698 73.5827 77.1136 73.4123 77.1136ZM76.658 77.055C76.3929 77.055 76.1757 76.9953 76.0064 76.8757C75.8371 76.755 75.7193 76.5887 75.6531 76.3768C75.5868 76.1649 75.5761 75.9222 75.6211 75.6488C75.6661 75.3718 75.7578 75.1274 75.8963 74.9155C76.036 74.7024 76.2106 74.5361 76.4201 74.4165C76.6308 74.297 76.8646 74.2372 77.1214 74.2372C77.3286 74.2372 77.5067 74.2757 77.6559 74.3526C77.805 74.4284 77.9181 74.5349 77.995 74.6722C78.072 74.8095 78.1051 74.9699 78.0945 75.1534H77.5778C77.5695 75.0256 77.5221 74.9155 77.4357 74.8232C77.3493 74.7308 77.2221 74.6847 77.054 74.6847C76.906 74.6847 76.7699 74.7237 76.6456 74.8018C76.5213 74.8788 76.4165 74.9889 76.3313 75.1321C76.2461 75.2741 76.1881 75.4422 76.1573 75.6364C76.1242 75.8352 76.1259 76.0069 76.1626 76.1513C76.1993 76.2957 76.2668 76.4076 76.3651 76.4869C76.4633 76.5662 76.587 76.6058 76.7362 76.6058C76.8379 76.6058 76.9326 76.5875 77.0202 76.5508C77.109 76.5129 77.1871 76.459 77.2546 76.3892C77.3233 76.3194 77.3765 76.2353 77.4144 76.1371H77.9329C77.882 76.3134 77.7968 76.4709 77.6772 76.6094C77.5588 76.7479 77.4132 76.8568 77.2404 76.9361C77.0676 77.0154 76.8735 77.055 76.658 77.055ZM79.4878 73.3636L78.8841 77H78.3532L78.9569 73.3636H79.4878ZM80.7596 77.055C80.5004 77.055 80.2837 76.9959 80.1097 76.8775C79.9357 76.7579 79.8132 76.591 79.7422 76.3768C79.6723 76.1613 79.6605 75.911 79.7067 75.6257C79.7517 75.3464 79.8422 75.1025 79.9783 74.8942C80.1156 74.6858 80.2873 74.5243 80.4933 74.4094C80.7004 74.2946 80.9306 74.2372 81.1839 74.2372C81.4432 74.2372 81.6592 74.297 81.832 74.4165C82.006 74.5361 82.1286 74.7036 82.1996 74.919C82.2706 75.1345 82.283 75.3854 82.2369 75.6719C82.1919 75.9489 82.1001 76.1915 81.9616 76.3999C81.8243 76.607 81.6527 76.768 81.4467 76.8828C81.2408 76.9976 81.0117 77.055 80.7596 77.055ZM80.7898 76.6094C80.9602 76.6094 81.1088 76.5644 81.2354 76.4744C81.3633 76.3845 81.4674 76.2649 81.5479 76.1158C81.6284 75.9666 81.6835 75.8033 81.7131 75.6257C81.7403 75.4541 81.7397 75.2972 81.7113 75.1552C81.6841 75.012 81.6249 74.8971 81.5337 74.8107C81.4426 74.7243 81.3159 74.6811 81.1538 74.6811C80.9833 74.6811 80.8336 74.7267 80.7045 74.8178C80.5767 74.9078 80.4725 75.0279 80.392 75.1783C80.3127 75.3286 80.2589 75.4925 80.2305 75.6701C80.2032 75.8406 80.2032 75.9974 80.2305 76.1406C80.2577 76.2827 80.3169 76.3963 80.408 76.4815C80.4992 76.5668 80.6264 76.6094 80.7898 76.6094ZM84.5269 75.869L84.7932 74.2727H85.3259L84.8714 77H84.3493L84.4292 76.5277H84.4008C84.3156 76.6733 84.1949 76.7946 84.0386 76.8917C83.8836 76.9876 83.7036 77.0355 83.4988 77.0355C83.3237 77.0355 83.1751 76.997 83.0532 76.9201C82.9324 76.842 82.8466 76.7266 82.7957 76.5739C82.7448 76.4212 82.7377 76.2324 82.7744 76.0075L83.0656 74.2727H83.5965L83.3177 75.9435C83.2881 76.1294 83.316 76.2773 83.4012 76.3874C83.4864 76.4975 83.6107 76.5526 83.7741 76.5526C83.8735 76.5526 83.9765 76.5277 84.083 76.478C84.1895 76.4283 84.2836 76.3531 84.3653 76.2525C84.4482 76.1519 84.502 76.024 84.5269 75.869ZM86.6021 77.0533C86.3807 77.0533 86.1931 76.997 86.0392 76.8846C85.8865 76.771 85.7782 76.6094 85.7143 76.3999C85.6516 76.1892 85.6445 75.9364 85.693 75.6417C85.7427 75.3469 85.8345 75.0948 85.9682 74.8853C86.102 74.6758 86.2641 74.5154 86.4547 74.4041C86.6453 74.2929 86.8507 74.2372 87.0708 74.2372C87.2401 74.2372 87.3715 74.2656 87.465 74.3224C87.5597 74.3781 87.6296 74.4432 87.6745 74.5178C87.7195 74.5923 87.7533 74.658 87.7757 74.7148H87.8059L88.0314 73.3636H88.5623L87.9586 77H87.4402L87.513 76.5756H87.4686C87.4271 76.6336 87.3697 76.6999 87.2963 76.7745C87.2241 76.8491 87.1318 76.9142 87.0194 76.9698C86.9069 77.0254 86.7678 77.0533 86.6021 77.0533ZM86.7814 76.6005C86.9341 76.6005 87.0708 76.5603 87.1916 76.4798C87.3135 76.3981 87.4147 76.285 87.4952 76.1406C87.5769 75.9962 87.6337 75.8281 87.6657 75.6364C87.6976 75.447 87.697 75.2812 87.6639 75.1392C87.6307 74.9972 87.5668 74.8865 87.4721 74.8072C87.3774 74.7279 87.2525 74.6882 87.0975 74.6882C86.9377 74.6882 86.7986 74.7296 86.6802 74.8125C86.5618 74.8954 86.4648 75.0084 86.389 75.1516C86.3145 75.2949 86.2624 75.4564 86.2328 75.6364C86.202 75.8187 86.2008 75.9826 86.2292 76.1282C86.2576 76.2738 86.3174 76.3892 86.4086 76.4744C86.4997 76.5585 86.624 76.6005 86.7814 76.6005Z" fill="black"/>
<g filter="url(#filter0_d_5_2)">
<path d="M51.4377 33.1356L38.8441 56.0028C37.376 58.6686 39.3045 61.9324 42.3479 61.9324H46.2634C47.6955 61.9324 49.0184 61.1667 49.7318 59.9249L60.8295 40.6066C61.5934 39.2769 61.5299 37.6277 60.666 36.3607L58.2464 32.8119C56.566 30.3474 52.8766 30.5228 51.4377 33.1356Z" fill="#CB3CFF"/>
<path d="M89.7489 33.4324L80.6053 17.2753C80.2604 16.5519 79.9809 16.2153 79.0785 15.9375C78.335 15.6807 77.5201 15.4928 76.6355 15.3739C76.3084 15.3269 75.8434 15.3102 75.7218 15.3065L75.7121 15.3062C75.6952 15.3058 75.6784 15.3055 75.6614 15.3054L72.5899 15.2775L42.0431 15.0002C38.8503 14.9712 36.9122 18.5107 38.6564 21.1851L40.8145 24.4943C41.5965 25.6933 42.9599 26.3821 44.3894 26.306C55.0115 25.7403 63.3112 25.5239 69.8754 25.9603C70.1246 25.9769 70.3714 25.9944 70.6156 26.0128L70.6169 26.0129C71.3428 26.0682 72.0165 26.4007 72.5137 26.9324C75.8483 30.7897 78.1877 34.115 79.7555 37.2778C79.8439 37.4562 79.9298 37.634 80.0134 37.8114L80.014 37.8128C80.135 38.0709 80.1149 38.3717 79.9663 38.6148L79.9637 38.619L73.25 49.5288C72.522 50.7118 71.2324 51.4324 69.8434 51.4324H61.3998C59.9644 51.4324 58.639 52.2016 57.9269 53.4479L56.4983 55.9479C54.9745 58.6145 56.9 61.9324 59.9713 61.9324H76.7634C78.1955 61.9324 79.5184 61.1667 80.2318 59.9249L81.6636 57.4324L91.4424 40.4101C92.1466 39.1842 92.1515 37.6778 91.4552 36.4475L89.7489 33.4324Z" fill="#00C2FF"/>
<path d="M75.7267 14.8065L75.7359 14.8067L75.7369 14.8067C75.8559 14.8104 76.3457 14.8273 76.7044 14.8787C76.7052 14.8788 76.706 14.8789 76.7068 14.879L76.6355 15.3739C77.5201 15.4928 78.335 15.6807 79.0785 15.9375L75.7267 14.8065ZM75.7267 14.8065C75.7266 14.8065 75.7265 14.8065 75.7265 14.8064C75.7264 14.8064 75.7263 14.8064 75.7262 14.8064C75.7261 14.8064 75.726 14.8064 75.7259 14.8064M75.7267 14.8065L69.841 26.4591C63.3094 26.025 55.0361 26.2397 44.4159 26.8053C42.8092 26.8909 41.2756 26.1166 40.3957 24.7674L38.2376 21.4582C36.2753 18.4495 38.4558 14.4676 42.0477 14.5002L72.5945 14.7775L75.666 14.8054C75.666 14.8054 75.666 14.8054 75.666 14.8054L75.6759 14.8055C75.6921 14.8057 75.7088 14.8059 75.7259 14.8064M75.7259 14.8064L75.7251 14.8064L75.7259 14.8064ZM75.6614 15.3054L75.6714 15.3055C75.685 15.3056 75.6986 15.3058 75.7121 15.3062L75.7218 15.3065M69.8754 25.9603L70.6169 26.0129M80.3908 16.0726C80.0909 15.7946 79.7197 15.6125 79.2338 15.4621L70.5777 26.5114L69.8422 26.4592C70.09 26.4757 70.3352 26.4931 70.5779 26.5114L70.579 26.5115C70.5794 26.5115 70.5798 26.5116 70.5802 26.5116C71.1735 26.557 71.7285 26.8281 72.1422 27.2671C75.4568 31.1022 77.7651 34.3889 79.3065 37.4978C79.3068 37.4985 79.3071 37.4992 79.3075 37.4999L79.5522 38.0063C79.5917 38.1192 79.5936 38.1638 79.5922 38.1872C79.5908 38.2114 79.5831 38.2598 79.5261 38.3761L72.8242 49.2668C72.1872 50.3019 71.0588 50.9324 69.8434 50.9324H61.3998C59.785 50.9324 58.2939 51.7977 57.4927 53.1998L56.0642 55.6998C54.3499 58.6997 56.5161 62.4324 59.9713 62.4324H76.7634C78.3745 62.4324 79.8628 61.571 80.6653 60.174L82.0972 57.6815L91.876 40.6591C92.6682 39.2801 92.6737 37.5853 91.8904 36.2012L90.1841 33.1861L81.049 17.0441C80.8722 16.6751 80.6843 16.3446 80.3908 16.0726ZM50.9997 32.8944L38.4062 55.7616C36.7545 58.7607 38.9241 62.4324 42.3479 62.4324H46.2634C47.8745 62.4324 49.3628 61.571 50.1653 60.174L61.2631 40.8556C62.1224 39.3598 62.051 37.5044 61.0791 36.0791L58.6595 32.5302C56.7691 29.7576 52.6185 29.955 50.9997 32.8944Z" stroke="#00C2FF"/>
</g>
</g>
<defs>
<filter id="filter0_d_5_2" x="32.9983" y="13" width="63.9757" height="56.9324" filterUnits="userSpaceOnUse" color-interpolation-filters="sRGB">
<feFlood flood-opacity="0" result="BackgroundImageFix"/>
<feColorMatrix in="SourceAlpha" type="matrix" values="0 0 0 0 0 0 0 0 0 0 0 0 0 0 0 0 0 0 127 0" result="hardAlpha"/>
<feOffset dy="3"/>
<feGaussianBlur stdDeviation="2"/>
<feComposite in2="hardAlpha" operator="out"/>
<feColorMatrix type="matrix" values="0 0 0 0 0 0 0 0 0 0 0 0 0 0 0 0 0 0 0.25 0"/>
<feBlend mode="normal" in2="BackgroundImageFix" result="effect1_dropShadow_5_2"/>
<feBlend mode="normal" in="SourceGraphic" in2="effect1_dropShadow_5_2" result="shape"/>
</filter>
<clipPath id="clip0_5_2">
<rect width="124" height="100" fill="white"/>
</clipPath>
</defs>
</svg>
